# xmcd
#
# Track frame offsets:
#	150
#	31090
#	71992
#	96207
#	117974
#	138690
#	171588
#	197322
#	217609
#	281001
#
# Disc length: 3967 seconds
#
# Revision: 1
# Processed by: cddbd v1.5.1PL0 Copyright (c) Steve Scherf et al.
# Submitted via: audiograbber 1.81.02
#
DISCID=920f7d0a
DTITLE=Yoko Noge and the Jazz Me Blues Band - Live at Kaho
DYEAR=2004
DGENRE=Blues
TTITLE0=On the Sunny Side of the Street
TTITLE1=Georgia
TTITLE2=Tonight You are the Best
TTITLE3=Black Boat Song
TTITLE4=Otoko Nante
TTITLE5=Starstream
TTITLE6=I'm Really Done In Blues
TTITLE7=Dirty Old Man in the Train Blues
TTITLE8=Coal Mining Song
TTITLE9=Tonight's the Night
EXTD=Chicago Band\nhttp://www.jazzmebluesmusic.com/
EXTT0=
EXTT1=
EXTT2=
EXTT3=
EXTT4=
EXTT5=
EXTT6=
EXTT7=
EXTT8=
EXTT9=
PLAYORDER=
